REM DIRINDEX 1\2\4\18,1\2\4\19,1\2\5\20,1\2\5\21,1\2\6\22,1\2\6\23,1\2\7\24,1\2\7\25,1\2\8\26,1\2\8\27,1\2\9\28,1\2\9\29,1\2\10\30,1\3\11\31,1\3\11\32,1\3\11\33,1\3\11\34,1\3\11\35,1\3\12\36,1\3\12\37,1\3\12\38,1\3\12\39,1\3\12\40,1\3\13\41,1\3\13\42,1\3\13\43,1\3\13\44,1\3\13\45,1\3\14\46,1\3\14\47,1\3\14\48,1\3\14\49,1\3\15\50,1\3\15\51,1\3\15\52,1\3\15\53,1\3\15\54,1\3\16\55,1\3\16\56,1\3\16\57,1\3\16\58,1\3\16\59,1\3\17\60,1\3\17\61
REM DIRNAME "folder01","folder02","folder03","folder04","folder05","folder06","folder07","folder08","folder09","folder10","folder11","folder12","folder13","folder14","folder15","folder16","folder17","folder18","folder19","folder20","folder21","folder22","folder23","folder24","folder25","folder26","folder27","folder28","folder29","folder30","folder31","folder32","folder33","folder34","folder35","folder36","folder37","folder38","folder39","folder40","folder41","folder42","folder43","folder44","folder45","folder46","folder47","folder48","folder49","folder50","folder51","folder52","folder53","folder54","folder55","folder56","folder57","folder58","folder59","folder60","folder61"
TITLE ""
FILE "TOEIC LR Kinnojyukugo_14.mp3" MP3
  TRACK 01 AUDIO
    TITLE "0:"
    INDEX 01 00:00:00
  TRACK 02 AUDIO
    TITLE "30:cjc160_1555"
    INDEX 01 00:00:08
  TRACK 03 AUDIO
    TITLE "0:"
    INDEX 01 00:01:47
  TRACK 04 AUDIO
    TITLE "30:cjc160_1556"
    INDEX 01 00:02:09
  TRACK 05 AUDIO
    TITLE "0:"
    INDEX 01 00:03:46
  TRACK 06 AUDIO
    TITLE "30:cjc160_1557"
    INDEX 01 00:04:08
  TRACK 07 AUDIO
    TITLE "0:"
    INDEX 01 00:05:33
  TRACK 08 AUDIO
    TITLE "30:cjc160_1558"
    INDEX 01 00:05:70
  TRACK 09 AUDIO
    TITLE "0:"
    INDEX 01 00:07:36
  TRACK 10 AUDIO
    TITLE "30:cjc160_1559"
    INDEX 01 00:07:73
  TRACK 11 AUDIO
    TITLE "0:"
    INDEX 01 00:09:27
  TRACK 12 AUDIO
    TITLE "30:cjc160_1560"
    INDEX 01 00:09:64
  TRACK 13 AUDIO
    TITLE "0:"
    INDEX 01 00:11:14
  TRACK 14 AUDIO
    TITLE "30:cjc160_1561"
    INDEX 01 00:11:49
  TRACK 15 AUDIO
    TITLE "0:"
    INDEX 01 00:13:21
  TRACK 16 AUDIO
    TITLE "30:cjc160_1562"
    INDEX 01 00:13:60
  TRACK 17 AUDIO
    TITLE "0:"
    INDEX 01 00:15:27
  TRACK 18 AUDIO
    TITLE "30:cjc160_1563"
    INDEX 01 00:15:63
  TRACK 19 AUDIO
    TITLE "0:"
    INDEX 01 00:17:36
  TRACK 20 AUDIO
    TITLE "30:cjc160_1564"
    INDEX 01 00:17:73
  TRACK 21 AUDIO
    TITLE "0:"
    INDEX 01 00:19:59
  TRACK 22 AUDIO
    TITLE "30:cjc160_1565"
    INDEX 01 00:20:21
  TRACK 23 AUDIO
    TITLE "0:"
    INDEX 01 00:21:34
  TRACK 24 AUDIO
    TITLE "30:cjc160_1566"
    INDEX 01 00:22:04
  TRACK 25 AUDIO
    TITLE "0:"
    INDEX 01 00:23:33
  TRACK 26 AUDIO
    TITLE "30:cjc160_1567"
    INDEX 01 00:23:70
  TRACK 27 AUDIO
    TITLE "0:"
    INDEX 01 00:26:02
  TRACK 28 AUDIO
    TITLE "30:cjc160_1568"
    INDEX 01 00:26:41
  TRACK 29 AUDIO
    TITLE "0:"
    INDEX 01 00:28:13
  TRACK 30 AUDIO
    TITLE "30:cjc160_1569"
    INDEX 01 00:28:48
  TRACK 31 AUDIO
    TITLE "0:"
    INDEX 01 00:30:04
  TRACK 32 AUDIO
    TITLE "30:cjc160_1570"
    INDEX 01 00:30:43
  TRACK 33 AUDIO
    TITLE "0:"
    INDEX 01 00:32:12
  TRACK 34 AUDIO
    TITLE "30:cjc160_1571"
    INDEX 01 00:32:53
  TRACK 35 AUDIO
    TITLE "0:"
    INDEX 01 00:34:21
  TRACK 36 AUDIO
    TITLE "30:cjc160_1572"
    INDEX 01 00:34:58
  TRACK 37 AUDIO
    TITLE "0:"
    INDEX 01 00:36:36
  TRACK 38 AUDIO
    TITLE "30:cjc160_1573"
    INDEX 01 00:36:73
  TRACK 39 AUDIO
    TITLE "0:"
    INDEX 01 00:38:25
  TRACK 40 AUDIO
    TITLE "30:cjc160_1574"
    INDEX 01 00:38:64
  TRACK 41 AUDIO
    TITLE "0:"
    INDEX 01 00:40:31
  TRACK 42 AUDIO
    TITLE "30:cjc160_1575"
    INDEX 01 00:40:73
  TRACK 43 AUDIO
    TITLE "0:"
    INDEX 01 00:42:42
  TRACK 44 AUDIO
    TITLE "30:cjc160_1576"
    INDEX 01 00:43:04
  TRACK 45 AUDIO
    TITLE "0:"
    INDEX 01 00:44:47
  TRACK 46 AUDIO
    TITLE "30:cjc160_1577"
    INDEX 01 00:45:11
  TRACK 47 AUDIO
    TITLE "0:"
    INDEX 01 00:46:55
  TRACK 48 AUDIO
    TITLE "30:cjc160_1578"
    INDEX 01 00:47:16
  TRACK 49 AUDIO
    TITLE "0:"
    INDEX 01 00:50:14
  TRACK 50 AUDIO
    TITLE "30:cjc160_1579"
    INDEX 01 00:50:51
  TRACK 51 AUDIO
    TITLE "0:"
    INDEX 01 00:52:35
  TRACK 52 AUDIO
    TITLE "30:cjc160_1580"
    INDEX 01 00:52:68
  TRACK 53 AUDIO
    TITLE "0:"
    INDEX 01 00:54:16
  TRACK 54 AUDIO
    TITLE "30:cjc160_1581"
    INDEX 01 00:54:53
  TRACK 55 AUDIO
    TITLE "0:"
    INDEX 01 00:56:07
  TRACK 56 AUDIO
    TITLE "30:cjc160_1582"
    INDEX 01 00:56:48
  TRACK 57 AUDIO
    TITLE "0:"
    INDEX 01 00:58:06
  TRACK 58 AUDIO
    TITLE "30:cjc160_1583"
    INDEX 01 00:58:51
  TRACK 59 AUDIO
    TITLE "0:"
    INDEX 01 01:00:03
  TRACK 60 AUDIO
    TITLE "30:cjc160_1584"
    INDEX 01 01:00:40
  TRACK 61 AUDIO
    TITLE "0:"
    INDEX 01 01:02:15
  TRACK 62 AUDIO
    TITLE "30:cjc160_1585"
    INDEX 01 01:02:51
  TRACK 63 AUDIO
    TITLE "0:"
    INDEX 01 01:04:40
  TRACK 64 AUDIO
    TITLE "30:cjc160_1586"
    INDEX 01 01:04:75
  TRACK 65 AUDIO
    TITLE "0:"
    INDEX 01 01:06:11
  TRACK 66 AUDIO
    TITLE "30:cjc160_1587"
    INDEX 01 01:06:50
  TRACK 67 AUDIO
    TITLE "0:"
    INDEX 01 01:08:16
  TRACK 68 AUDIO
    TITLE "30:cjc160_1588"
    INDEX 01 01:08:53
  TRACK 69 AUDIO
    TITLE "0:"
    INDEX 01 01:10:25
  TRACK 70 AUDIO
    TITLE "30:cjc160_1589"
    INDEX 01 01:10:70
  TRACK 71 AUDIO
    TITLE "0:"
    INDEX 01 01:12:33
  TRACK 72 AUDIO
    TITLE "30:cjc160_1590"
    INDEX 01 01:12:72
  TRACK 73 AUDIO
    TITLE "0:"
    INDEX 01 01:14:50
  TRACK 74 AUDIO
    TITLE "30:cjc160_1591"
    INDEX 01 01:15:12
  TRACK 75 AUDIO
    TITLE "0:"
    INDEX 01 01:17:01
  TRACK 76 AUDIO
    TITLE "30:cjc160_1592"
    INDEX 01 01:17:40
  TRACK 77 AUDIO
    TITLE "0:"
    INDEX 01 01:18:67
  TRACK 78 AUDIO
    TITLE "30:cjc160_1593"
    INDEX 01 01:19:31
  TRACK 79 AUDIO
    TITLE "0:"
    INDEX 01 01:21:11
  TRACK 80 AUDIO
    TITLE "30:cjc160_1594"
    INDEX 01 01:21:50
  TRACK 81 AUDIO
    TITLE "0:"
    INDEX 01 01:23:33
  TRACK 82 AUDIO
    TITLE "30:cjc160_1595"
    INDEX 01 01:23:72
  TRACK 83 AUDIO
    TITLE "0:"
    INDEX 01 01:25:09
  TRACK 84 AUDIO
    TITLE "30:cjc160_1596"
    INDEX 01 01:25:59
  TRACK 85 AUDIO
    TITLE "0:"
    INDEX 01 01:27:13
  TRACK 86 AUDIO
    TITLE "30:cjc160_1597"
    INDEX 01 01:27:51
  TRACK 87 AUDIO
    TITLE "0:"
    INDEX 01 01:29:02
  TRACK 88 AUDIO
    TITLE "30:cjc160_1598"
    INDEX 01 01:29:49
  TRACK 89 AUDIO
    TITLE "0:"
    INDEX 01 01:31:27
